<svg xmlns="http://www.w3.org/2000/svg" xmlns:xlink="http://www.w3.org/1999/xlink" width="241.811" height="58.241" viewBox="0 0 241.811 58.241">
  <defs>
    <linearGradient id="linear-gradient" y1="0.274" x2="0.959" y2="0.848" gradientUnits="objectBoundingBox">
      <stop offset="0" stop-color="#ffe76d"/>
      <stop offset="0.368" stop-color="#ffc757"/>
      <stop offset="1" stop-color="#ff5353"/>
    </linearGradient>
  </defs>
  <g id="组_8544" data-name="组 8544" transform="translate(59.017 14.48)">
    <path id="路径_8539" data-name="路径 8539" d="M182.878,16.919a13.436,13.436,0,0,1-.427,1.776,1.078,1.078,0,0,1-1.027.746h-16.1a3.932,3.932,0,0,0,.831,3.085c.991,1.134,2.889,1.733,5.488,1.733,2.538,0,6.228-1.389,8.582-2.768a.932.932,0,0,1,.873-.061.887.887,0,0,1,.5.962l-1.112,4.072a.882.882,0,0,1-.453.612,20.632,20.632,0,0,1-9.742,2.133c-4.235,0-7.535-1.266-9.544-3.66a9.691,9.691,0,0,1-1.837-8.133c.976-5.638,5.88-11.326,14.633-11.326,3.443,0,6.019.989,7.655,2.941A9.668,9.668,0,0,1,182.878,16.919Zm-7.006-5.274a4.15,4.15,0,0,0-3.374-1.285,6.9,6.9,0,0,0-6.389,4.727h10.518A4.546,4.546,0,0,0,175.872,11.646Zm-21.28,16.341a.913.913,0,0,1-.9.758l-4.644.006h0a.91.91,0,0,1-.9-1.1l2.094-11.414c.292-1.848.061-3.282-.669-4.14a3.3,3.3,0,0,0-2.648-1.013,5.61,5.61,0,0,0-4.807,3.068,5.323,5.323,0,0,0-.517,1.654l-2.119,12.131a.973.973,0,0,1-.956.807l-4.456.006a.974.974,0,0,1-.958-1.144l1.992-11.366c.292-1.85.061-3.284-.669-4.143a3.3,3.3,0,0,0-2.648-1.013,5.765,5.765,0,0,0-4.934,3.068,5.311,5.311,0,0,0-.517,1.654l-2.158,12.186a.907.907,0,0,1-.893.75l-4.65,0a.9.9,0,0,1-.409-.087.916.916,0,0,1-.5-.98l2.543-14.437q.049-.306.1-.6l.034-.25.8-5.3a.892.892,0,0,1,.892-.768l4.812.034a.9.9,0,0,1,.9,1.055l-.295,1.549a9.252,9.252,0,0,1,7.028-2.866,6.691,6.691,0,0,1,6.129,3.163c1.159-1.289,3.959-3.565,9.031-3.162,2.643.21,4.6,1.1,5.821,2.659,1.282,1.634,1.693,3.967,1.223,6.935Zm-40.155.022a.891.891,0,0,1-.876.731h-4.512a.887.887,0,0,1-.9-1.043l.158-.941a12.276,12.276,0,0,1-6.81,2.436c-.133.009-.362.021-.662.021-1.387,0-4.273-.254-5.952-2.205-1.192-1.386-1.525-3.334-.99-5.792.865-3.974,4.128-6.5,9.436-7.3a29.15,29.15,0,0,1,7.482-.056,2.5,2.5,0,0,0-.256-1.9c-.459-.581-1.54-.906-3.614-1.085a20.561,20.561,0,0,0-7.426,1.045.91.91,0,0,1-.725-.058.9.9,0,0,1-.448-.938l.528-3.06a.89.89,0,0,1,.584-.692A20.781,20.781,0,0,1,112,6.629H112a6.461,6.461,0,0,1,5.025,6.127,18.749,18.749,0,0,1-.789,6.436C116.189,19.384,114.678,26.694,114.437,28.009Zm-6.681-9.89c-5.107,0-7.091,2.116-7.619,2.84a2.743,2.743,0,0,0-.5,2.68,2.188,2.188,0,0,0,1.9,1.218c4.278.454,7.371-3.089,7.763-3.563l.5-3.071C109.069,18.151,108.388,18.119,107.755,18.119ZM93.836,6.547a.891.891,0,0,1-1.052.66c-10.6-2.229-17.741.766-19.591,8.217a6.383,6.383,0,0,0,.75,5.361,7.192,7.192,0,0,0,5.3,2.74c3.794.357,5.641-1.072,5.968-1.358l.926-4.131H81.169a.858.858,0,0,1-.415-.094.9.9,0,0,1-.46-.983l.763-3.51a.887.887,0,0,1,.866-.7H92.436a.879.879,0,0,1,.411.09.9.9,0,0,1,.478.978l-2.58,11.868a1.923,1.923,0,0,1-.937,1.57,27.2,27.2,0,0,1-10.7,2.059q-.4,0-.817-.011C67.411,28.479,66.21,21,66.1,18.727A17.333,17.333,0,0,1,75.289,3.16C79.981.56,83.72.524,87.336.489h.115a19.6,19.6,0,0,1,6.805.961.9.9,0,0,1,.525,1.044ZM63.682,18.664a1.13,1.13,0,0,1-1.079.785H46.547a3.779,3.779,0,0,0,.826,2.952c1.04,1.189,3.042,1.818,5.79,1.818,2.583,0,5.936-1.509,8.225-2.927a.91.91,0,0,1,.9-.057.874.874,0,0,1,.456.982l-.881,3.869a1.076,1.076,0,0,1-.54.713,21.262,21.262,0,0,1-9.815,2.416c-4.235,0-7.536-1.266-9.544-3.66a9.69,9.69,0,0,1-1.837-8.132C41.105,11.786,46.008,6.1,54.761,6.1c3.443,0,6.019.989,7.655,2.94A9.67,9.67,0,0,1,64.1,16.927,13.618,13.618,0,0,1,63.682,18.664ZM57.09,11.653a4.151,4.151,0,0,0-3.374-1.284A6.9,6.9,0,0,0,47.328,15.1H57.846A4.548,4.548,0,0,0,57.09,11.653ZM37.466,18.737c-.38,1.994-1.356,6.247-3.868,8.29a10.323,10.323,0,0,1-2.781,1.686,13.6,13.6,0,0,1-6.551.992,8.3,8.3,0,0,1-6.346-3.756,12.421,12.421,0,0,1-8.78,3.529q-.532,0-1.079-.044A7.775,7.775,0,0,1,2.22,26.481a8.986,8.986,0,0,1-1.8-7.221L3.684,1.37A1.06,1.06,0,0,1,4.731.491h.023L9.31,1.935h0A1.068,1.068,0,0,1,10.335,3.2l-3.126,15.5c-.33,1.884-.149,3.258.54,4.081a3.284,3.284,0,0,0,2.651.981,5.09,5.09,0,0,0,4.612-2.9,5.759,5.759,0,0,0,.557-1.715l.072-.4L18.8,1.4a1.1,1.1,0,0,1,1.11-.914h0l4.147,1.429h0a1.111,1.111,0,0,1,1.07,1.308l-3.067,15.47c-.319,1.821-.164,3.077.474,3.839a3.343,3.343,0,0,0,2.718.953,4.838,4.838,0,0,0,4.611-2.632,5.751,5.751,0,0,0,.557-1.715L33.168,5.547l.8-3.7a1,1,0,0,1,.989-.81h0l4.663,1.687h0A1,1,0,0,1,40.587,3.9Z" transform="translate(-0.274 -0.484)" fill="#fff" fill-rule="evenodd"/>
    <path id="路径_10105" data-name="路径 10105" d="M70.247,50.707c-.058-.434-.19-1.534-.4-2.621a19.614,19.614,0,0,0-.619-2.442l-.013-.036a4.538,4.538,0,0,0-.366-.765,2.971,2.971,0,0,0-.77-.859,3.808,3.808,0,0,0-3.427-.335,4.924,4.924,0,0,0-2.089,2.583c-.577,1.127-1.153,2.256-1.8,3.344a6.351,6.351,0,0,1-1.389,1.7,3.228,3.228,0,0,1-.89.519c-1.295.486-2.208-.194-3.206-.976-1.062-.832-2-1.807-3.092-2.605A4.493,4.493,0,0,0,49.8,47.172c-1.545-.008-2.9,1.5-3.746,2.615-.473.625-1.4,1.89-1.882,2.506a8.259,8.259,0,0,1-1.1,1.111,2.837,2.837,0,0,1-.476.337,2.672,2.672,0,0,1-1.167.33,3.8,3.8,0,0,1-2.107-.64,6.5,6.5,0,0,1-.7-.444l-.085-.064a1.137,1.137,0,0,0-1.781,1.037.951.951,0,0,0,.06.331c0,.007.006.013.009.02a.958.958,0,0,0,.226.339c1.474,2.178,3.569,3.762,5.588,3.795a3.657,3.657,0,0,0,1.541-.3c1.567-.691,2.742-2.191,4.051-3.238a3.19,3.19,0,0,1,1.885-.8,2.519,2.519,0,0,1,1.531.522,5.15,5.15,0,0,1,.457.349,21.637,21.637,0,0,1,1.8,1.828,24.1,24.1,0,0,0,2.184,2.064,6.138,6.138,0,0,0,2.783,1.356c.111.017.221.028.33.034a3.693,3.693,0,0,0,2.43-.762,10.134,10.134,0,0,0,1.808-1.671,14.877,14.877,0,0,0,1.125-1.611c.167-.272.346-.461.487-.748a14,14,0,0,1-.159,2.313,24.486,24.486,0,0,1-.516,3.125q-.149.614-.326,1.22-.282.965-.636,1.909a4.625,4.625,0,0,1-.176.455l-.007.017q-.213.558-.465,1.1a17,17,0,0,1-30.92-.022q-.255-.547-.471-1.115l-.01-.023a26.478,26.478,0,0,1,1.033-21.9,31.606,31.606,0,0,1,3.968-5.814,20.268,20.268,0,0,1,5.175-4.722c.071-.043.138-.091.208-.135a10.114,10.114,0,0,1,11.091,0c.07.044.139.089.207.135a27.388,27.388,0,0,1,4.358,3.852l.005.006c.043.043.085.086.126.129a2.87,2.87,0,0,0,.717.513,3.3,3.3,0,0,0,3.625-.512,3.133,3.133,0,0,0,.331-4.056c-.1-.122-.2-.244-.294-.364a19.6,19.6,0,0,0-1.752-1.852,34.142,34.142,0,0,0-4.679-3.544c-.095-.059-.189-.116-.285-.173A14.867,14.867,0,0,0,47.581,24a13.95,13.95,0,0,0-7.36,2.04c-.1.057-.191.114-.285.173a29.555,29.555,0,0,0-7.195,6.011c-.018.021-.038.041-.058.061A37.56,37.56,0,0,0,24,56.069a40.348,40.348,0,0,0,.87,8.357,23.023,23.023,0,0,0,44.844.04c.023-.106.045-.211.067-.317a.236.236,0,0,0,.005-.026c.017-.083.034-.166.05-.251a38.479,38.479,0,0,0,.693-5.425q.062-1.1.063-2.206A44.3,44.3,0,0,0,70.247,50.707Z" transform="translate(-83.017 -38.48)" fill-rule="evenodd" fill="url(#linear-gradient)"/>
  </g>
</svg>
