<svg xmlns="http://www.w3.org/2000/svg" xmlns:xlink="http://www.w3.org/1999/xlink" width="24" height="24" viewBox="0 0 24 24">
  <defs>
    <clipPath id="clip-画板_1">
      <rect width="24" height="24"/>
    </clipPath>
  </defs>
  <g id="画板_1" data-name="画板 – 1" clip-path="url(#clip-画板_1)">
    <path id="联合_2858" data-name="联合 2858" d="M4.369,20.7A11.5,11.5,0,1,1,20.632,4.439a11.6,11.6,0,0,1,1.12,1.3V3a1,1,0,1,1,2,0V9a1,1,0,0,1-1.733.68l-.447.068a9.505,9.505,0,1,0-1.33,8.321h.49q0-.034,0-.07a1,1,0,1,1,1.353.936A11.566,11.566,0,0,1,20.632,20.7a11.5,11.5,0,0,1-16.263,0ZM11.752,15a1,1,0,0,1-1-1V8a1,1,0,0,1,2,0v5h3a1,1,0,0,1,0,2Z" transform="translate(-0.376 -0.57)" fill="#fff"/>
  </g>
</svg>
