<svg xmlns="http://www.w3.org/2000/svg" xmlns:xlink="http://www.w3.org/1999/xlink" width="24" height="24" viewBox="0 0 24 24">
  <defs>
    <clipPath id="clip-画板_2">
      <rect width="24" height="24"/>
    </clipPath>
  </defs>
  <g id="画板_2" data-name="画板 – 2" clip-path="url(#clip-画板_2)">
    <path id="联合_2251" data-name="联合 2251" d="M15672.643,94.813l-4.243-4.243a.98.98,0,0,1-.1-.122h-3.6a3,3,0,0,1-3-3v-11a3,3,0,0,1,3-3h16a3.007,3.007,0,0,1,3,3v11a3.007,3.007,0,0,1-3,3h-5a1,1,0,1,1,0-2h4a2,2,0,0,0,2-2v-9a2,2,0,0,0-2-2h-14a2,2,0,0,0-2,2v9a2,2,0,0,0,2,2h3a6.985,6.985,0,0,1,1.122.708l4.243,4.243a1,1,0,0,1-.707,1.708A.989.989,0,0,1,15672.643,94.813Zm-4.951-10.364a1,1,0,1,1,0-2h10a1,1,0,1,1,0,2Zm0-4a1,1,0,1,1,0-2h5a1,1,0,1,1,0,2Z" transform="translate(-15660.691 -72.28)" fill="#fff"/>
  </g>
</svg>
