<svg xmlns="http://www.w3.org/2000/svg" xmlns:xlink="http://www.w3.org/1999/xlink" width="152.023" height="38" viewBox="0 0 152.023 38">
  <defs>
    <linearGradient id="linear-gradient" x1="0.029" y1="0.223" x2="1" y2="0.853" gradientUnits="objectBoundingBox">
      <stop offset="0" stop-color="#ffe76d"/>
      <stop offset="0.347" stop-color="#ffc757"/>
      <stop offset="1" stop-color="#ff5454"/>
    </linearGradient>
  </defs>
  <g id="组_9571" data-name="组 9571" transform="translate(-21.627 -7)">
    <g id="图层_1" data-name="图层 1" transform="translate(21.627 7)">
      <path id="路径_8791" data-name="路径 8791" d="M30.207,13.463a2.759,2.759,0,0,0-3.054-1.041c-1.484.314-2.241,3.382-3.4,4.584s-2.213.34-3.535-.889-1.852-1.641-2.672-1.759-1.43.341-2.564,1.654-1.133,1.777-2.321,2.666-2.672-1.673-3.67-1.438-.892,1.869,0,2.98a4.617,4.617,0,0,0,3.67,1.96c1.859.137,2.915-1.372,4.021-2.169s2.113.026,3.994,2.169,3.816,1.334,4.5.713a7.9,7.9,0,0,0,1.783-2.137A11.565,11.565,0,0,1,15.574,32.713a10.611,10.611,0,0,1-9.446-6.821c-1.754-4.469-1.365-9.7.282-12.806S9.5,7.571,11.958,5.664a6.731,6.731,0,0,1,7.421-.1c1.484,1.052,1.962,1.8,3.1,2.692a2.38,2.38,0,0,0,3.023-.157,2.238,2.238,0,0,0,.567-3.032C24.615,3.521,21.611-.321,15.979-.321c-4.426,0-7.34,2.431-10.2,5.384S-1.57,15.918.624,25.892C2.2,32.91,8.286,37.679,16.033,37.679a15.307,15.307,0,0,0,14.843-11.5C32.279,20.273,30.936,14.351,30.207,13.463Z" transform="translate(-0.04 0.321)" fill-rule="evenodd" fill="url(#linear-gradient)"/>
    </g>
    <path id="路径_10809" data-name="路径 10809" d="M112.844,10.943a8.532,8.532,0,0,1-.263,1.113.666.666,0,0,1-.633.467h-9.923a2.492,2.492,0,0,0,.512,1.933,4.389,4.389,0,0,0,3.383,1.086,13.171,13.171,0,0,0,5.509-1.771.566.566,0,0,1,.538-.038.558.558,0,0,1,.305.6l-.616,2.9a.552.552,0,0,1-.279.383,13.459,13.459,0,0,1-6.22,1.551A7.416,7.416,0,0,1,99.27,16.7c-1.084-1.314-1.274-3.508-.931-5.528.6-3.532,3.05-7.014,8.446-7.014,2.123,0,4.154.289,5.163,1.511C112.937,6.865,113.174,9,112.844,10.943Zm-4.319-3.3a2.537,2.537,0,0,0-2.08-.8A4.268,4.268,0,0,0,102.506,9.8h6.484A2.886,2.886,0,0,0,108.525,7.639ZM95.5,18.519a.565.565,0,0,1-.554.475l-2.863,0h0a.569.569,0,0,1-.545-.422.582.582,0,0,1-.007-.267l1.2-7.792a3.266,3.266,0,0,0-.413-2.594,2.018,2.018,0,0,0-1.633-.635A3.456,3.456,0,0,0,87.718,9.21a3.374,3.374,0,0,0-.319,1.036l-1.216,8.241a.6.6,0,0,1-.589.506l-2.747,0a.607.607,0,0,1-.591-.717l1.138-7.762a3.269,3.269,0,0,0-.412-2.6,2.018,2.018,0,0,0-1.633-.635A3.55,3.55,0,0,0,78.308,9.21a3.367,3.367,0,0,0-.319,1.036l-1.241,8.276a.562.562,0,0,1-.55.47l-2.867,0a.547.547,0,0,1-.252-.054.576.576,0,0,1-.307-.614L74.25,8.636q.03-.192.06-.377L74.33,8.1l.41-3.333a.553.553,0,0,1,.55-.481l2.966.021a.556.556,0,0,1,.247.053.571.571,0,0,1,.31.608l-.2,1.034a5.662,5.662,0,0,1,4.332-1.8,4.108,4.108,0,0,1,3.778,1.982A6.44,6.44,0,0,1,92.288,4.21a4.787,4.787,0,0,1,3.589,1.666,5.407,5.407,0,0,1,.859,4.3Zm-24.755.014a.552.552,0,0,1-.54.458H67.419a.546.546,0,0,1-.247-.052.567.567,0,0,1-.307-.6l.1-.589a7.851,7.851,0,0,1-4.219,1.232c-.082.006-.223.013-.408.013a4.887,4.887,0,0,1-3.669-1.382,4.849,4.849,0,0,1-.68-3.976c.533-2.49,2.387-3.4,5.659-3.906A17.685,17.685,0,0,1,68.258,9.7c.065-.53.21-1.586,0-1.857-.283-.364-.949-.567-2.228-.68a12.489,12.489,0,0,0-4.578.654A.553.553,0,0,1,61,7.777a.564.564,0,0,1-.276-.587l.306-1.555c.034-.2.221-.7.409-.77a12.618,12.618,0,0,1,7.733-.342h0a3.976,3.976,0,0,1,3.068,3.813,11.925,11.925,0,0,1-.487,4.032C71.731,12.487,70.889,17.708,70.741,18.532Zm-4.227-6.561c-3.148,0-4.353,1.049-4.679,1.5a1.74,1.74,0,0,0-.306,1.679,1.349,1.349,0,0,0,1.168.763c2.637.285,4.544-1.936,4.786-2.232l.292-1.648C67.324,11.992,66.9,11.971,66.514,11.971ZM57.95,4.445a.549.549,0,0,1-.648.413c-6.535-1.4-10.937.48-12.077,5.148a4.054,4.054,0,0,0,.462,3.359,4.413,4.413,0,0,0,3.267,1.717,4.812,4.812,0,0,0,3.679-.851l.571-2.588H50.412a.522.522,0,0,1-.256-.059.565.565,0,0,1-.283-.616l.471-2.293a.549.549,0,0,1,.534-.438h6.21a.535.535,0,0,1,.253.056.57.57,0,0,1,.295.613l-1.521,7.876c-.065.342-.255,1.327-.685,1.538a17.544,17.544,0,0,1-6.476.954q-.249,0-.5-.007c-6.709-.515-7.53-5.766-7.6-7.19A10.709,10.709,0,0,1,46.65,2.6,13.719,13.719,0,0,1,54.077.924h.071a11.906,11.906,0,0,1,4.2.6.564.564,0,0,1,.324.654ZM39.361,12.036a.7.7,0,0,1-.665.492H28.8a2.4,2.4,0,0,0,.509,1.849,4.636,4.636,0,0,0,3.57,1.139,10.962,10.962,0,0,0,5.07-1.834.545.545,0,0,1,.837.58l-.474,2.771a.673.673,0,0,1-.333.447,12.939,12.939,0,0,1-6.051,1.514c-2.611,0-4.646-.793-5.883-2.293a6.972,6.972,0,0,1-1.2-5.442c.6-3.532,3.625-7.1,9.021-7.1a5.792,5.792,0,0,1,4.719,1.842,6.135,6.135,0,0,1,1.036,4.943A8.643,8.643,0,0,1,39.361,12.036ZM35.3,7.644a2.538,2.538,0,0,0-2.08-.8A4.267,4.267,0,0,0,29.279,9.8h6.484A2.887,2.887,0,0,0,35.3,7.644ZM23.2,12.082c-.234,1.249-.709,4.015-2.257,5.295a6.347,6.347,0,0,1-1.714,1.056,8.261,8.261,0,0,1-4.038.622A5.1,5.1,0,0,1,11.278,16.7a7.6,7.6,0,0,1-5.413,2.211q-.328,0-.665-.028a4.77,4.77,0,0,1-3.6-1.851A5.653,5.653,0,0,1,.5,12.528L2.446.516a.657.657,0,0,1,.646-.551h.014l3.047.92h0a.651.651,0,0,1,.495.246.678.678,0,0,1,.137.544L4.547,12.054a3.179,3.179,0,0,0,.333,2.557,2.007,2.007,0,0,0,1.634.615,3.134,3.134,0,0,0,2.843-1.819A3.649,3.649,0,0,0,9.7,12.332l.044-.253L11.767.534a.68.68,0,0,1,.684-.573h0l2.825.9h0a.677.677,0,0,1,.515.254.706.706,0,0,1,.144.565L13.7,12.053A2.976,2.976,0,0,0,14,14.459a2.043,2.043,0,0,0,1.676.6,2.975,2.975,0,0,0,2.843-1.649,3.644,3.644,0,0,0,.343-1.074l1.763-9.2.5-2.317a.619.619,0,0,1,.61-.508h0l3.2,1.136h0a.606.606,0,0,1,.464.227.631.631,0,0,1,.13.508Z" transform="translate(60.666 16.837)" fill="#fff" fill-rule="evenodd"/>
  </g>
</svg>
