<svg xmlns="http://www.w3.org/2000/svg" xmlns:xlink="http://www.w3.org/1999/xlink" width="24" height="24" viewBox="0 0 24 24">
  <defs>
    <clipPath id="clip-画板_3">
      <rect width="24" height="24"/>
    </clipPath>
  </defs>
  <g id="画板_3" data-name="画板 – 3" clip-path="url(#clip-画板_3)">
    <path id="联合_2284" data-name="联合 2284" d="M12872.516,91.485A12,12,0,1,1,12881,95,11.917,11.917,0,0,1,12872.516,91.485Zm-1.6-8.484A10.08,10.08,0,1,0,12881,72.92,10.093,10.093,0,0,0,12870.92,83Zm14.4,5.281h-.025a4.318,4.318,0,0,0-8.583,0h-.028a.961.961,0,0,1-1.923,0,.945.945,0,0,1,.051-.3,6.2,6.2,0,0,1,1.94-3.784,6.368,6.368,0,0,1,1.289-.929,4.322,4.322,0,1,1,5.915,0,6.306,6.306,0,0,1,1.292.929,6.209,6.209,0,0,1,1.941,3.784.959.959,0,1,1-1.869.3Zm-6.72-8.161a2.4,2.4,0,1,0,2.4-2.4A2.4,2.4,0,0,0,12878.6,80.121Z" transform="translate(-12869 -71)" fill="#fff"/>
  </g>
</svg>
